<?xml version="1.0" standalone="no"?>
<!DOCTYPE svg PUBLIC "-//W3C//DTD SVG 20010904//EN"
 "http://www.w3.org/TR/2001/REC-SVG-20010904/DTD/svg10.dtd">
<svg version="1.0" xmlns="http://www.w3.org/2000/svg"
 width="766.000000pt" height="266.000000pt" viewBox="0 0 766.000000 266.000000"
 preserveAspectRatio="xMidYMid meet">

<g transform="translate(0.000000,266.000000) scale(0.100000,-0.100000)"
fill="#000000" stroke="none">
<path d="M520 1320 l0 -920 3335 0 3335 0 0 920 0 920 -3335 0 -3335 0 0 -920z
m6618 0 l0 -860 -3279 0 -3279 0 0 860 0 860 3279 0 3279 0 0 -860z"/>
<path d="M700 1325 l0 -745 1575 0 1575 0 0 745 0 745 -1575 0 -1575 0 0 -745z
m1565 28 c49 -120 95 -233 102 -250 l13 -33 -33 0 c-31 0 -35 4 -56 55 l-23
55 -123 0 -123 0 -22 -55 c-21 -51 -25 -55 -56 -55 l-34 0 18 43 c9 24 55 136
102 250 84 205 85 207 115 207 30 0 31 -2 120 -217z m315 -33 l0 -250 -30 0
-30 0 0 250 0 250 30 0 30 0 0 -250z"/>
<path d="M2102 1377 c-23 -56 -44 -110 -48 -119 -6 -16 3 -18 90 -18 53 0 96
3 96 6 0 5 -90 227 -94 231 -1 1 -21 -44 -44 -100z"/>
<path d="M6315 1561 c-52 -24 -75 -50 -86 -99 -19 -88 28 -152 136 -184 86
-25 115 -42 115 -68 0 -47 -91 -51 -112 -5 -10 23 -17 25 -80 25 -75 0 -79 -4
-54 -63 29 -72 114 -112 216 -105 105 7 169 62 173 145 3 86 -43 133 -168 168
-57 16 -95 38 -95 56 0 17 33 39 59 39 28 0 61 -26 61 -48 0 -12 121 -18 132
-6 10 10 -13 78 -35 103 -54 59 -181 80 -262 42z"/>
<path d="M4460 1320 l0 -250 70 0 70 0 0 127 0 126 95 -126 95 -127 60 0 60 0
0 250 0 250 -75 0 -74 0 -3 -121 -3 -120 -90 120 -89 121 -58 0 -58 0 0 -250z"/>
<path d="M5010 1320 l0 -250 175 0 175 0 0 60 0 60 -100 0 -100 0 0 40 0 40
90 0 90 0 0 55 0 55 -90 0 -90 0 0 35 0 34 98 3 97 3 3 58 3 57 -176 0 -175 0
0 -250z"/>
<path d="M5446 1433 c24 -76 60 -189 80 -250 l35 -113 72 0 73 0 45 138 46
137 45 -135 45 -135 73 0 74 0 77 240 c43 132 78 243 78 248 1 4 -33 7 -74 7
l-74 0 -41 -130 c-22 -71 -43 -130 -45 -130 -2 0 -23 59 -47 130 l-43 131 -69
-3 -70 -3 -40 -122 c-22 -68 -43 -123 -47 -123 -3 0 -23 56 -45 125 l-38 125
-77 0 -77 0 44 -137z"/>
</g>
</svg>
